# xmcd CD database file
#
# Track frame offsets:
#	182
#	13447
#	31847
#	45245
#	68477
#	84530
#	92605
#	97610
#	118887
#	131347
#	140650
#	152652
#	170285
#	184870
#	200495
#	215290
#
# Disc length: 3063 seconds
#
# Revision: 3
# Processed by: cddbd v1.5.1PL0 Copyright (c) Steve Scherf et al.
# Submitted via: CDex 1.51
#
DISCID=cb0bf510
DTITLE=Bad Livers - Horses in the Mines
DYEAR=1994
DGENRE=Bluegrass
TTITLE0=Where They Do Not Know My Name
TTITLE1=Turpentine Willie
TTITLE2=Old Folk's Shuffle
TTITLE3=Horses in the Mines
TTITLE4=Time and Time Again
TTITLE5=Clawhammer Fish
TTITLE6=New Bad Liver Singer
TTITLE7=High, Lonesome, Dead and Gone
TTITLE8=Blue Ridge Express
TTITLE9=Shot at a Bird, Hit Me a Stump
TTITLE10=Chainsaw Therapy
TTITLE11=He Didn't Say a Word
TTITLE12=Puke Grub
TTITLE13=Yearning
TTITLE14=Stevejames
TTITLE15=Let's Forgive Each Other
EXTD=YEAR: 1994
EXTT0=
EXTT1=
EXTT2=
EXTT3=
EXTT4=
EXTT5=
EXTT6=
EXTT7=
EXTT8=
EXTT9=
EXTT10=
EXTT11=
EXTT12=
EXTT13=
EXTT14=
EXTT15=
PLAYORDER=
